<svg version="1.2" xmlns="http://www.w3.org/2000/svg" viewBox="0 0 100 100" width="510" height="510">
	<title>bitcoin_icon_raw-svg</title>
	<style>
		.s0 { fill: #f7931a } 
		.s1 { fill: #ffffff } 
	</style>
	<g id="Layer">
		<g id="Layer">
			<path id="Layer" class="s0" d="m98.1 61.9c-6.6 26.2-33.1 42.1-59.3 35.6-26.2-6.5-42.1-33.1-35.6-59.2 6.5-26.3 33.1-42.2 59.3-35.7 26.2 6.6 42.1 33.1 35.6 59.3z"/>
			<path id="Layer" fill-rule="evenodd" class="s1" d="m65.3 51c4.8 2.5 7.3 6.3 5 13-2.9 8.3-9.8 9-19 7.2l-2.2 8.9-5.3-1.3 2.1-8.8q-2-0.5-4.2-1.1l-2.2 8.8-5.4-1.3 2.2-8.9q-1.8-0.5-3.8-1l-7-1.7 2.7-6.2c0 0 3.9 1.1 3.9 1 1.5 0.4 2.2-0.6 2.4-1.3l3.6-14.1q0.3 0.1 0.5 0.2-0.3-0.1-0.5-0.2l2.5-10c0-1.2-0.4-2.6-2.5-3.2 0 0-3.9-0.9-3.9-0.9l1.4-5.8 7.4 1.9q1.7 0.4 3.4 0.8l2.2-8.8 5.4 1.3-2.2 8.7q2.2 0.5 4.3 1l2.2-8.6 5.3 1.4-2.2 8.8c6.8 2.3 11.8 5.8 10.8 12.3-0.7 4.8-3.4 7.1-6.9 7.9zm-18.9-0.4l-3 11.9c3.6 0.9 14.9 4.5 16.5-2.2 1.8-6.9-9.9-8.7-13.5-9.7zm4-16.1l-2.7 10.7c3 0.8 12.4 3.9 13.9-2.2 1.6-6.3-8.2-7.7-11.2-8.5z"/>
		</g>
	</g>
</svg>